<?xml version="1.0" encoding="UTF-8" standalone="no"?>
<!-- Created with Inkscape (http://www.inkscape.org/) -->

<svg
   xmlns:dc="http://purl.org/dc/elements/1.1/"
   xmlns:cc="http://creativecommons.org/ns#"
   xmlns:rdf="http://www.w3.org/1999/02/22-rdf-syntax-ns#"
   xmlns:svg="http://www.w3.org/2000/svg"
   xmlns="http://www.w3.org/2000/svg"
   xmlns:sodipodi="http://sodipodi.sourceforge.net/DTD/sodipodi-0.dtd"
   xmlns:inkscape="http://www.inkscape.org/namespaces/inkscape"
   width="35mm"
   height="52mm"
   viewBox="0 0 35 52"
   version="1.1"
   id="svg8"
   inkscape:version="0.92.3 (2405546, 2018-03-11)"
   sodipodi:docname="inkscape_zs3v_only_union.svg"
   inkscape:export-filename="E:\Outsourced Documents\Godot Projects\PassInfSys.G\assets\png\ks\zs3v\zs3_kz10.png"
   inkscape:export-xdpi="350.22693"
   inkscape:export-ydpi="350.22693">
  <defs
     id="defs2" />
  <sodipodi:namedview
     id="base"
     pagecolor="#ffffff"
     bordercolor="#666666"
     borderopacity="1.0"
     inkscape:pageopacity="0.0"
     inkscape:pageshadow="2"
     inkscape:zoom="3.959798"
     inkscape:cx="79.473347"
     inkscape:cy="84.460685"
     inkscape:document-units="mm"
     inkscape:current-layer="layer1"
     showgrid="false"
     showguides="true"
     inkscape:guide-bbox="true"
     inkscape:window-width="3840"
     inkscape:window-height="2066"
     inkscape:window-x="-11"
     inkscape:window-y="-11"
     inkscape:window-maximized="1"
     fit-margin-top="0"
     fit-margin-left="0"
     fit-margin-right="0"
     fit-margin-bottom="0">
    <sodipodi:guide
       position="17.5,27.896257"
       orientation="1,0"
       id="guide817"
       inkscape:locked="false"
       inkscape:label=""
       inkscape:color="rgb(0,0,255)" />
    <sodipodi:guide
       position="17.5,-19.999998"
       orientation="0,1"
       id="guide819"
       inkscape:locked="false"
       inkscape:label=""
       inkscape:color="rgb(0,0,255)" />
    <sodipodi:guide
       position="17.500001,-39.999999"
       orientation="0,1"
       id="guide821"
       inkscape:locked="false"
       inkscape:label=""
       inkscape:color="rgb(0,0,255)" />
    <sodipodi:guide
       position="17.499999,-70"
       orientation="0,1"
       id="guide823"
       inkscape:locked="false"
       inkscape:label=""
       inkscape:color="rgb(0,0,255)" />
  </sodipodi:namedview>
  <metadata
     id="metadata5">
    <rdf:RDF>
      <cc:Work
         rdf:about="">
        <dc:format>image/svg+xml</dc:format>
        <dc:type
           rdf:resource="http://purl.org/dc/dcmitype/StillImage" />
        <dc:title></dc:title>
      </cc:Work>
    </rdf:RDF>
  </metadata>
  <g
     inkscape:label="Ebene 1"
     inkscape:groupmode="layer"
     id="layer1"
     transform="translate(-7.5,-160)"
     style="display:inline">
    <rect
       style="opacity:1;fill:#1e1e1e;fill-opacity:1;stroke:none;stroke-width:0.25665033;stroke-linecap:round;stroke-linejoin:round;stroke-miterlimit:4;stroke-dasharray:none;stroke-dashoffset:0;stroke-opacity:1;paint-order:markers fill stroke"
       id="rect815-2"
       width="35"
       height="52"
       x="7.5"
       y="160" />
    <rect
       style="opacity:1;fill:#0f0f0f;fill-opacity:1;stroke:none;stroke-width:0.22589973;stroke-linecap:round;stroke-linejoin:round;stroke-miterlimit:4;stroke-dasharray:none;stroke-dashoffset:0;stroke-opacity:1;paint-order:markers fill stroke"
       id="rect815-2-8"
       width="30"
       height="47"
       x="10"
       y="162.5" />
  </g>
  <g
     inkscape:groupmode="layer"
     id="layer2"
     inkscape:label="Kz6"
     style="display:none">
    <path
       style="opacity:1;fill:#f7b10f;fill-opacity:1;stroke:none;stroke-width:2.18640828;stroke-linecap:round;stroke-linejoin:round;stroke-miterlimit:4;stroke-dasharray:none;stroke-dashoffset:0;stroke-opacity:1;paint-order:markers fill stroke"
       d="m 78.660156,37.703125 a 4.7244094,4.7244094 0 0 0 -4.724609,4.724609 4.7244094,4.7244094 0 0 0 4.724609,4.72461 4.7244094,4.7244094 0 0 0 4.72461,-4.72461 4.7244094,4.7244094 0 0 0 -4.72461,-4.724609 z M 72.5,50.115234 A 4.7244094,4.7244094 0 0 0 67.775391,54.839844 4.7244094,4.7244094 0 0 0 72.5,59.5625 4.7244094,4.7244094 0 0 0 77.224609,54.839844 4.7244094,4.7244094 0 0 0 72.5,50.115234 Z M 65.089844,62.525391 A 4.7244094,4.7244094 0 0 0 60.365234,67.25 4.7244094,4.7244094 0 0 0 65.089844,71.974609 4.7244094,4.7244094 0 0 0 69.814453,67.25 4.7244094,4.7244094 0 0 0 65.089844,62.525391 Z m -7.794922,11.615234 a 4.7244094,4.7244094 0 0 0 -4.72461,4.724609 4.7244094,4.7244094 0 0 0 4.72461,4.72461 4.7244094,4.7244094 0 0 0 4.724609,-4.72461 4.7244094,4.7244094 0 0 0 -4.724609,-4.724609 z m -7.386719,11.773437 a 4.7244094,4.7244094 0 0 0 -4.724609,4.72461 4.7244094,4.7244094 0 0 0 4.724609,4.724609 4.7244094,4.7244094 0 0 0 4.724609,-4.724609 4.7244094,4.7244094 0 0 0 -4.724609,-4.72461 z m 23.822266,12.365235 a 4.7244094,4.7244094 0 0 0 -4.72461,4.722653 4.7244094,4.7244094 0 0 0 4.72461,4.72461 4.7244094,4.7244094 0 0 0 4.724609,-4.72461 4.7244094,4.7244094 0 0 0 -4.724609,-4.722653 z m -14.3125,0.201172 a 4.7244094,4.7244094 0 0 0 -4.72461,4.724611 4.7244094,4.7244094 0 0 0 4.72461,4.72461 4.7244094,4.7244094 0 0 0 4.724609,-4.72461 4.7244094,4.7244094 0 0 0 -4.724609,-4.724611 z m -16.595703,0.65039 a 4.7244094,4.7244094 0 0 0 -4.72461,4.724611 4.7244094,4.7244094 0 0 0 4.72461,4.72461 4.7244094,4.7244094 0 0 0 4.724609,-4.72461 4.7244094,4.7244094 0 0 0 -4.724609,-4.724611 z m 43.992187,3.939451 a 4.7244094,4.7244094 0 0 0 -4.724609,4.72461 4.7244094,4.7244094 0 0 0 4.724609,4.72461 4.7244094,4.7244094 0 0 0 4.724609,-4.72461 4.7244094,4.7244094 0 0 0 -4.724609,-4.72461 z m -50.175781,9.14258 a 4.7244094,4.7244094 0 0 0 -4.722656,4.72461 4.7244094,4.7244094 0 0 0 4.722656,4.72461 4.7244094,4.7244094 0 0 0 4.724609,-4.72461 4.7244094,4.7244094 0 0 0 -4.724609,-4.72461 z m 59.076172,2.00977 a 4.7244094,4.7244094 0 0 0 -4.72461,4.72265 4.7244094,4.7244094 0 0 0 4.72461,4.72461 4.7244094,4.7244094 0 0 0 4.724606,-4.72461 4.7244094,4.7244094 0 0 0 -4.724606,-4.72265 z m -61.404297,10.63086 a 4.7244094,4.7244094 0 0 0 -4.722656,4.7246 4.7244094,4.7244094 0 0 0 4.722656,4.72461 4.7244094,4.7244094 0 0 0 4.724609,-4.72461 4.7244094,4.7244094 0 0 0 -4.724609,-4.7246 z m 63.753906,1.87109 a 4.7244094,4.7244094 0 0 0 -4.722656,4.72461 4.7244094,4.7244094 0 0 0 4.722656,4.72461 4.7244094,4.7244094 0 0 0 4.724607,-4.72461 4.7244094,4.7244094 0 0 0 -4.724607,-4.72461 z m -61.292969,10.80273 a 4.7244094,4.7244094 0 0 0 -4.722656,4.72461 4.7244094,4.7244094 0 0 0 4.722656,4.72461 4.7244094,4.7244094 0 0 0 4.72461,-4.72461 4.7244094,4.7244094 0 0 0 -4.72461,-4.72461 z m 58.808594,1.07032 a 4.7244094,4.7244094 0 0 0 -4.724609,4.72265 4.7244094,4.7244094 0 0 0 4.724609,4.72461 4.7244094,4.7244094 0 0 0 4.724612,-4.72461 4.7244094,4.7244094 0 0 0 -4.724612,-4.72265 z m -52.324219,10.08593 a 4.7244094,4.7244094 0 0 0 -4.722656,4.72461 4.7244094,4.7244094 0 0 0 4.722656,4.72461 4.7244094,4.7244094 0 0 0 4.72461,-4.72461 4.7244094,4.7244094 0 0 0 -4.72461,-4.72461 z m 45.404297,0.89453 a 4.7244094,4.7244094 0 0 0 -4.724609,4.72461 4.7244094,4.7244094 0 0 0 4.724609,4.72461 4.7244094,4.7244094 0 0 0 4.72461,-4.72461 4.7244094,4.7244094 0 0 0 -4.72461,-4.72461 z m -10.08789,6.96485 a 4.7244094,4.7244094 0 0 0 -4.72461,4.72461 4.7244094,4.7244094 0 0 0 4.72461,4.72461 4.7244094,4.7244094 0 0 0 4.722656,-4.72461 4.7244094,4.7244094 0 0 0 -4.722656,-4.72461 z m -25.042969,0.17578 a 4.7244094,4.7244094 0 0 0 -4.724609,4.72461 4.7244094,4.7244094 0 0 0 4.724609,4.72461 4.7244094,4.7244094 0 0 0 4.724609,-4.72461 4.7244094,4.7244094 0 0 0 -4.724609,-4.72461 z m 12.65625,2.61328 a 4.7244094,4.7244094 0 0 0 -4.722656,4.72461 4.7244094,4.7244094 0 0 0 4.722656,4.72461 4.7244094,4.7244094 0 0 0 4.724609,-4.72461 4.7244094,4.7244094 0 0 0 -4.724609,-4.72461 z"
       transform="scale(0.26458333)"
       id="path2396"
       inkscape:connector-curvature="0" />
  </g>
  <g
     inkscape:groupmode="layer"
     id="layer3"
     inkscape:label="Kz8"
     style="display:none">
    <path
       style="display:inline;opacity:1;fill:#f7b10f;fill-opacity:1;stroke:none;stroke-width:2.18640852;stroke-linecap:round;stroke-linejoin:round;stroke-miterlimit:4;stroke-dasharray:none;stroke-dashoffset:0;stroke-opacity:1;paint-order:markers fill stroke"
       d="m 66.101562,38.457031 a 4.7244094,4.7244094 0 0 0 -4.724609,4.72461 4.7244094,4.7244094 0 0 0 4.724609,4.724609 4.7244094,4.7244094 0 0 0 4.72461,-4.724609 4.7244094,4.7244094 0 0 0 -4.72461,-4.72461 z M 53.589844,41.59375 a 4.7244094,4.7244094 0 0 0 -4.72461,4.724609 4.7244094,4.7244094 0 0 0 4.72461,4.72461 4.7244094,4.7244094 0 0 0 4.724609,-4.72461 4.7244094,4.7244094 0 0 0 -4.724609,-4.724609 z m 25.011718,0.08398 a 4.7244094,4.7244094 0 0 0 -4.722656,4.72461 4.7244094,4.7244094 0 0 0 4.722656,4.722656 4.7244094,4.7244094 0 0 0 4.72461,-4.722656 4.7244094,4.7244094 0 0 0 -4.72461,-4.72461 z m -34.607421,8.501954 a 4.7244094,4.7244094 0 0 0 -4.72461,4.724609 4.7244094,4.7244094 0 0 0 4.72461,4.724609 4.7244094,4.7244094 0 0 0 4.724609,-4.724609 4.7244094,4.7244094 0 0 0 -4.724609,-4.724609 z m 44.205078,0.08398 a 4.7244094,4.7244094 0 0 0 -4.72461,4.724609 4.7244094,4.7244094 0 0 0 4.72461,4.72461 4.7244094,4.7244094 0 0 0 4.724609,-4.72461 4.7244094,4.7244094 0 0 0 -4.724609,-4.724609 z M 39.132812,61.986328 a 4.7244094,4.7244094 0 0 0 -4.724609,4.72461 4.7244094,4.7244094 0 0 0 4.724609,4.724609 4.7244094,4.7244094 0 0 0 4.72461,-4.724609 4.7244094,4.7244094 0 0 0 -4.72461,-4.72461 z m 53.927735,0.08398 a 4.7244094,4.7244094 0 0 0 -4.724609,4.72461 4.7244094,4.7244094 0 0 0 4.724609,4.722656 4.7244094,4.7244094 0 0 0 4.724609,-4.722656 4.7244094,4.7244094 0 0 0 -4.724609,-4.72461 z m -52.666016,12.98438 a 4.7244094,4.7244094 0 0 0 -4.724609,4.724609 4.7244094,4.7244094 0 0 0 4.724609,4.724609 4.7244094,4.7244094 0 0 0 4.72461,-4.724609 4.7244094,4.7244094 0 0 0 -4.72461,-4.724609 z m 51.402344,0.08398 a 4.7244094,4.7244094 0 0 0 -4.724609,4.724609 4.7244094,4.7244094 0 0 0 4.724609,4.72461 4.7244094,4.7244094 0 0 0 4.724609,-4.72461 4.7244094,4.7244094 0 0 0 -4.724609,-4.724609 z M 47.466797,85.472656 a 4.7244094,4.7244094 0 0 0 -4.724609,4.722656 4.7244094,4.7244094 0 0 0 4.724609,4.72461 4.7244094,4.7244094 0 0 0 4.724609,-4.72461 4.7244094,4.7244094 0 0 0 -4.724609,-4.722656 z m 37.259765,0.08203 a 4.7244094,4.7244094 0 0 0 -4.724609,4.724609 4.7244094,4.7244094 0 0 0 4.724609,4.724609 4.7244094,4.7244094 0 0 0 4.72461,-4.724609 4.7244094,4.7244094 0 0 0 -4.72461,-4.724609 z m -11.779296,7.505859 a 4.7244094,4.7244094 0 0 0 -4.72461,4.724609 4.7244094,4.7244094 0 0 0 4.72461,4.724616 4.7244094,4.7244094 0 0 0 4.722656,-4.724616 4.7244094,4.7244094 0 0 0 -4.722656,-4.724609 z m -14.019532,0.08984 a 4.7244094,4.7244094 0 0 0 -4.722656,4.724609 4.7244094,4.7244094 0 0 0 4.722656,4.724606 4.7244094,4.7244094 0 0 0 4.72461,-4.724606 4.7244094,4.7244094 0 0 0 -4.72461,-4.724609 z M 46.632812,98.75 a 4.7244094,4.7244094 0 0 0 -4.724609,4.72461 4.7244094,4.7244094 0 0 0 4.724609,4.72461 4.7244094,4.7244094 0 0 0 4.722657,-4.72461 A 4.7244094,4.7244094 0 0 0 46.632812,98.75 Z m 38.902344,0.115234 a 4.7244094,4.7244094 0 0 0 -4.724609,4.724606 4.7244094,4.7244094 0 0 0 4.724609,4.72266 4.7244094,4.7244094 0 0 0 4.72461,-4.72266 4.7244094,4.7244094 0 0 0 -4.72461,-4.724606 z M 37.970703,109.28516 a 4.7244094,4.7244094 0 0 0 -4.724609,4.72461 4.7244094,4.7244094 0 0 0 4.724609,4.72461 4.7244094,4.7244094 0 0 0 4.724609,-4.72461 4.7244094,4.7244094 0 0 0 -4.724609,-4.72461 z m 56.226563,0.11523 a 4.7244094,4.7244094 0 0 0 -4.72461,4.72461 4.7244094,4.7244094 0 0 0 4.72461,4.72461 4.7244094,4.7244094 0 0 0 4.722656,-4.72461 4.7244094,4.7244094 0 0 0 -4.722656,-4.72461 z m -60.244141,12.92188 a 4.7244094,4.7244094 0 0 0 -4.724609,4.72265 4.7244094,4.7244094 0 0 0 4.724609,4.72461 4.7244094,4.7244094 0 0 0 4.724609,-4.72461 4.7244094,4.7244094 0 0 0 -4.724609,-4.72265 z m 64.261719,0.11328 a 4.7244094,4.7244094 0 0 0 -4.72461,4.72461 4.7244094,4.7244094 0 0 0 4.72461,4.72461 4.7244094,4.7244094 0 0 0 4.724606,-4.72461 4.7244094,4.7244094 0 0 0 -4.724606,-4.72461 z m -63.369141,12.92187 a 4.7244094,4.7244094 0 0 0 -4.724609,4.72461 4.7244094,4.7244094 0 0 0 4.724609,4.72461 4.7244094,4.7244094 0 0 0 4.724609,-4.72461 4.7244094,4.7244094 0 0 0 -4.724609,-4.72461 z m 62.476563,0.11524 a 4.7244094,4.7244094 0 0 0 -4.72461,4.72265 4.7244094,4.7244094 0 0 0 4.72461,4.72461 4.7244094,4.7244094 0 0 0 4.722654,-4.72461 4.7244094,4.7244094 0 0 0 -4.722654,-4.72265 z m -55.511719,10.86718 a 4.7244094,4.7244094 0 0 0 -4.724609,4.72461 4.7244094,4.7244094 0 0 0 4.724609,4.72461 4.7244094,4.7244094 0 0 0 4.724609,-4.72461 4.7244094,4.7244094 0 0 0 -4.724609,-4.72461 z m 48.546875,0.11328 a 4.7244094,4.7244094 0 0 0 -4.72461,4.72461 4.7244094,4.7244094 0 0 0 4.72461,4.72461 4.7244094,4.7244094 0 0 0 4.724609,-4.72461 4.7244094,4.7244094 0 0 0 -4.724609,-4.72461 z m -37.654297,7.56446 a 4.7244094,4.7244094 0 0 0 -4.724609,4.72461 4.7244094,4.7244094 0 0 0 4.724609,4.72461 4.7244094,4.7244094 0 0 0 4.724609,-4.72461 4.7244094,4.7244094 0 0 0 -4.724609,-4.72461 z m 26.761719,0.11523 a 4.7244094,4.7244094 0 0 0 -4.72461,4.72461 4.7244094,4.7244094 0 0 0 4.72461,4.72461 4.7244094,4.7244094 0 0 0 4.724609,-4.72461 4.7244094,4.7244094 0 0 0 -4.724609,-4.72461 z m -13.34961,2.8125 a 4.7244094,4.7244094 0 0 0 -4.722656,4.72461 4.7244094,4.7244094 0 0 0 4.722656,4.72461 4.7244094,4.7244094 0 0 0 4.72461,-4.72461 4.7244094,4.7244094 0 0 0 -4.72461,-4.72461 z"
       transform="scale(0.26458333)"
       id="path2396-76-5"
       inkscape:connector-curvature="0" />
  </g>
  <g
     inkscape:groupmode="layer"
     id="layer4"
     inkscape:label="Kz5"
     style="display:none">
    <path
       style="display:inline;opacity:1;fill:#f7b10f;fill-opacity:1;stroke:none;stroke-width:2.18640852;stroke-linecap:round;stroke-linejoin:round;stroke-miterlimit:4;stroke-dasharray:none;stroke-dashoffset:0;stroke-opacity:1;paint-order:markers fill stroke"
       d="m 75.28125,30.787109 a 4.7244094,4.7244094 0 0 0 -4.724609,4.72461 4.7244094,4.7244094 0 0 0 4.724609,4.724609 4.7244094,4.7244094 0 0 0 4.724609,-4.724609 4.7244094,4.7244094 0 0 0 -4.724609,-4.72461 z m -36.390625,0.03125 a 4.7244094,4.7244094 0 0 0 -4.724609,4.72461 4.7244094,4.7244094 0 0 0 4.724609,4.724609 4.7244094,4.7244094 0 0 0 4.724609,-4.724609 4.7244094,4.7244094 0 0 0 -4.724609,-4.72461 z m 18.5625,0.183594 a 4.7244094,4.7244094 0 0 0 -4.724609,4.724609 4.7244094,4.7244094 0 0 0 4.724609,4.72461 4.7244094,4.7244094 0 0 0 4.724609,-4.72461 4.7244094,4.7244094 0 0 0 -4.724609,-4.724609 z M 91.46875,31.28125 a 4.7244094,4.7244094 0 0 0 -4.724609,4.724609 4.7244094,4.7244094 0 0 0 4.724609,4.72461 4.7244094,4.7244094 0 0 0 4.724609,-4.72461 A 4.7244094,4.7244094 0 0 0 91.46875,31.28125 Z M 38.763672,46.095703 a 4.7244094,4.7244094 0 0 0 -4.722656,4.724609 4.7244094,4.7244094 0 0 0 4.722656,4.72461 4.7244094,4.7244094 0 0 0 4.724609,-4.72461 4.7244094,4.7244094 0 0 0 -4.724609,-4.724609 z m 0,15.910156 a 4.7244094,4.7244094 0 0 0 -4.722656,4.72461 4.7244094,4.7244094 0 0 0 4.722656,4.724609 4.7244094,4.7244094 0 0 0 4.724609,-4.724609 4.7244094,4.7244094 0 0 0 -4.724609,-4.72461 z m -0.251953,15.910157 a 4.7244094,4.7244094 0 0 0 -4.72461,4.724609 4.7244094,4.7244094 0 0 0 4.72461,4.724609 4.7244094,4.7244094 0 0 0 4.724609,-4.724609 4.7244094,4.7244094 0 0 0 -4.724609,-4.724609 z m 16.289062,12.753906 a 4.7244094,4.7244094 0 0 0 -4.724609,4.724609 4.7244094,4.7244094 0 0 0 4.724609,4.724609 4.7244094,4.7244094 0 0 0 4.72461,-4.724609 4.7244094,4.7244094 0 0 0 -4.72461,-4.724609 z m 18.435547,0.503906 a 4.7244094,4.7244094 0 0 0 -4.724609,4.72461 4.7244094,4.7244094 0 0 0 4.724609,4.724612 4.7244094,4.7244094 0 0 0 4.72461,-4.724612 4.7244094,4.7244094 0 0 0 -4.72461,-4.72461 z m -34.472656,3.410156 a 4.7244094,4.7244094 0 0 0 -4.722656,4.72461 4.7244094,4.7244094 0 0 0 4.722656,4.724606 4.7244094,4.7244094 0 0 0 4.724609,-4.724606 4.7244094,4.7244094 0 0 0 -4.724609,-4.72461 z m 50.382812,5.177735 a 4.7244094,4.7244094 0 0 0 -4.724609,4.722661 4.7244094,4.7244094 0 0 0 4.724609,4.7246 4.7244094,4.7244094 0 0 0 4.72461,-4.7246 4.7244094,4.7244094 0 0 0 -4.72461,-4.722661 z M 99.5,115.16602 a 4.7244094,4.7244094 0 0 0 -4.724609,4.7246 4.7244094,4.7244094 0 0 0 4.724609,4.72461 4.7244094,4.7244094 0 0 0 4.72461,-4.72461 4.7244094,4.7244094 0 0 0 -4.72461,-4.7246 z m 0.88477,17.42578 a 4.7244094,4.7244094 0 0 0 -4.724614,4.72265 4.7244094,4.7244094 0 0 0 4.724614,4.72461 4.7244094,4.7244094 0 0 0 4.72265,-4.72461 4.7244094,4.7244094 0 0 0 -4.72265,-4.72265 z m -62.111332,14.10742 a 4.7244094,4.7244094 0 0 0 -4.72461,4.72461 4.7244094,4.7244094 0 0 0 4.72461,4.72265 4.7244094,4.7244094 0 0 0 4.724609,-4.72265 4.7244094,4.7244094 0 0 0 -4.724609,-4.72461 z m 56.554687,2.30664 a 4.7244094,4.7244094 0 0 0 -4.724609,4.72461 4.7244094,4.7244094 0 0 0 4.724609,4.72461 4.7244094,4.7244094 0 0 0 4.724609,-4.72461 4.7244094,4.7244094 0 0 0 -4.724609,-4.72461 z m -45.119141,8.61133 a 4.7244094,4.7244094 0 0 0 -4.724609,4.72265 4.7244094,4.7244094 0 0 0 4.724609,4.72461 4.7244094,4.7244094 0 0 0 4.72461,-4.72461 4.7244094,4.7244094 0 0 0 -4.72461,-4.72265 z m 31.986328,0.73242 a 4.7244094,4.7244094 0 0 0 -4.724609,4.72461 4.7244094,4.7244094 0 0 0 4.724609,4.72461 4.7244094,4.7244094 0 0 0 4.72461,-4.72461 4.7244094,4.7244094 0 0 0 -4.72461,-4.72461 z m -15.402343,2.31055 a 4.7244094,4.7244094 0 0 0 -4.722657,4.72461 4.7244094,4.7244094 0 0 0 4.722657,4.72265 4.7244094,4.7244094 0 0 0 4.724609,-4.72265 4.7244094,4.7244094 0 0 0 -4.724609,-4.72461 z"
       transform="scale(0.26458333)"
       id="path2396-76-5-0-4-5"
       inkscape:connector-curvature="0" />
  </g>
  <g
     inkscape:groupmode="layer"
     id="layer6"
     inkscape:label="Kz7"
     style="display:none">
    <path
       style="display:inline;opacity:1;fill:#f7b10f;fill-opacity:1;stroke:none;stroke-width:2.18640852;stroke-linecap:round;stroke-linejoin:round;stroke-miterlimit:4;stroke-dasharray:none;stroke-dashoffset:0;stroke-opacity:1;paint-order:markers fill stroke"
       d="m 52.402344,41.550781 a 4.7244094,4.7244094 0 0 0 -4.72461,4.72461 4.7244094,4.7244094 0 0 0 4.72461,4.724609 4.7244094,4.7244094 0 0 0 4.724609,-4.724609 4.7244094,4.7244094 0 0 0 -4.724609,-4.72461 z m -17.173828,0.0625 a 4.7244094,4.7244094 0 0 0 -4.72461,4.72461 4.7244094,4.7244094 0 0 0 4.72461,4.724609 4.7244094,4.7244094 0 0 0 4.724609,-4.724609 4.7244094,4.7244094 0 0 0 -4.724609,-4.72461 z m 33.083984,0 a 4.7244094,4.7244094 0 0 0 -4.724609,4.72461 4.7244094,4.7244094 0 0 0 4.724609,4.724609 4.7244094,4.7244094 0 0 0 4.722656,-4.724609 4.7244094,4.7244094 0 0 0 -4.722656,-4.72461 z m 16.777344,0.08984 a 4.7244094,4.7244094 0 0 0 -4.72461,4.724609 4.7244094,4.7244094 0 0 0 4.72461,4.72461 4.7244094,4.7244094 0 0 0 4.724609,-4.72461 4.7244094,4.7244094 0 0 0 -4.724609,-4.724609 z m 15.562496,0.08398 a 4.7244094,4.7244094 0 0 0 -4.724606,4.72461 4.7244094,4.7244094 0 0 0 4.724606,4.724609 4.7244094,4.7244094 0 0 0 4.72461,-4.724609 4.7244094,4.7244094 0 0 0 -4.72461,-4.72461 z m -0.25,18.109375 a 4.7244094,4.7244094 0 0 0 -4.724606,4.72461 4.7244094,4.7244094 0 0 0 4.724606,4.724609 4.7244094,4.7244094 0 0 0 4.72461,-4.724609 4.7244094,4.7244094 0 0 0 -4.72461,-4.72461 z m -11.888668,14.23243 a 4.7244094,4.7244094 0 0 0 -4.722656,4.72461 4.7244094,4.7244094 0 0 0 4.722656,4.722656 4.7244094,4.7244094 0 0 0 4.724609,-4.722656 4.7244094,4.7244094 0 0 0 -4.724609,-4.72461 z M 74.876953,88.017578 a 4.7244094,4.7244094 0 0 0 -4.724609,4.72461 4.7244094,4.7244094 0 0 0 4.724609,4.724609 4.7244094,4.7244094 0 0 0 4.724609,-4.724609 4.7244094,4.7244094 0 0 0 -4.724609,-4.72461 z M 61.619141,102.53906 a 4.7244094,4.7244094 0 0 0 -4.72461,4.72461 4.7244094,4.7244094 0 0 0 4.72461,4.72461 4.7244094,4.7244094 0 0 0 4.724609,-4.72461 4.7244094,4.7244094 0 0 0 -4.724609,-4.72461 z m -13.636719,14.01563 a 4.7244094,4.7244094 0 0 0 -4.72461,4.72461 4.7244094,4.7244094 0 0 0 4.72461,4.72461 4.7244094,4.7244094 0 0 0 4.724609,-4.72461 4.7244094,4.7244094 0 0 0 -4.724609,-4.72461 z m -13.636719,14.52148 a 4.7244094,4.7244094 0 0 0 -4.724609,4.72461 4.7244094,4.7244094 0 0 0 4.724609,4.72461 4.7244094,4.7244094 0 0 0 4.724609,-4.72461 4.7244094,4.7244094 0 0 0 -4.724609,-4.72461 z m 0.181641,17.66797 a 4.7244094,4.7244094 0 0 0 -4.72461,4.72461 4.7244094,4.7244094 0 0 0 4.72461,4.72461 4.7244094,4.7244094 0 0 0 4.724609,-4.72461 4.7244094,4.7244094 0 0 0 -4.724609,-4.72461 z"
       transform="scale(0.26458333)"
       id="path2396-76-5-0-4-5-55"
       inkscape:connector-curvature="0" />
  </g>
  <g
     inkscape:groupmode="layer"
     id="layer7"
     inkscape:label="Kz4"
     style="display:none">
    <path
       style="display:inline;opacity:1;fill:#f7b10f;fill-opacity:1;stroke:none;stroke-width:2.18640852;stroke-linecap:round;stroke-linejoin:round;stroke-miterlimit:4;stroke-dasharray:none;stroke-dashoffset:0;stroke-opacity:1;paint-order:markers fill stroke"
       d="m 84.283203,36.974609 a 4.7244094,4.7244094 0 0 0 -4.724609,4.72461 4.7244094,4.7244094 0 0 0 4.724609,4.724609 4.7244094,4.7244094 0 0 0 4.722656,-4.724609 4.7244094,4.7244094 0 0 0 -4.722656,-4.72461 z M 72.521484,43.8125 a 4.7244094,4.7244094 0 0 0 -4.724609,4.724609 4.7244094,4.7244094 0 0 0 4.724609,4.72461 4.7244094,4.7244094 0 0 0 4.72461,-4.72461 4.7244094,4.7244094 0 0 0 -4.72461,-4.724609 z m 12.0625,7.953125 a 4.7244094,4.7244094 0 0 0 -4.724609,4.724609 4.7244094,4.7244094 0 0 0 4.724609,4.72461 4.7244094,4.7244094 0 0 0 4.72461,-4.72461 4.7244094,4.7244094 0 0 0 -4.72461,-4.724609 z m -21.160156,2.677734 a 4.7244094,4.7244094 0 0 0 -4.724609,4.72461 4.7244094,4.7244094 0 0 0 4.724609,4.724609 4.7244094,4.7244094 0 0 0 4.72461,-4.724609 4.7244094,4.7244094 0 0 0 -4.72461,-4.72461 z m -9.730469,10.53711 a 4.7244094,4.7244094 0 0 0 -4.724609,4.724609 4.7244094,4.7244094 0 0 0 4.724609,4.72461 4.7244094,4.7244094 0 0 0 4.72461,-4.72461 4.7244094,4.7244094 0 0 0 -4.72461,-4.724609 z m 31.111329,2.236328 a 4.7244094,4.7244094 0 0 0 -4.72461,4.724609 4.7244094,4.7244094 0 0 0 4.72461,4.72461 4.7244094,4.7244094 0 0 0 4.724609,-4.72461 4.7244094,4.7244094 0 0 0 -4.724609,-4.724609 z m -40.238282,8.994141 a 4.7244094,4.7244094 0 0 0 -4.724609,4.724609 4.7244094,4.7244094 0 0 0 4.724609,4.724609 4.7244094,4.7244094 0 0 0 4.72461,-4.724609 4.7244094,4.7244094 0 0 0 -4.72461,-4.724609 z m 40.511719,6.083984 a 4.7244094,4.7244094 0 0 0 -4.724609,4.724609 4.7244094,4.7244094 0 0 0 4.724609,4.72461 4.7244094,4.7244094 0 0 0 4.724609,-4.72461 4.7244094,4.7244094 0 0 0 -4.724609,-4.724609 z m -48.982422,4.515625 a 4.7244094,4.7244094 0 0 0 -4.724609,4.724609 4.7244094,4.7244094 0 0 0 4.724609,4.72461 4.7244094,4.7244094 0 0 0 4.724609,-4.72461 4.7244094,4.7244094 0 0 0 -4.724609,-4.724609 z m 49.082031,10.816406 a 4.7244094,4.7244094 0 0 0 -4.722656,4.724607 4.7244094,4.7244094 0 0 0 4.722656,4.72461 4.7244094,4.7244094 0 0 0 4.72461,-4.72461 4.7244094,4.7244094 0 0 0 -4.72461,-4.724607 z m -55.939453,0.613281 a 4.7244094,4.7244094 0 0 0 -4.724609,4.724606 4.7244094,4.7244094 0 0 0 4.724609,4.72461 4.7244094,4.7244094 0 0 0 4.72461,-4.72461 4.7244094,4.7244094 0 0 0 -4.72461,-4.724606 z m 68.408203,13.083986 a 4.7244094,4.7244094 0 0 0 -4.724609,4.72461 4.7244094,4.7244094 0 0 0 4.724609,4.72265 4.7244094,4.7244094 0 0 0 4.724606,-4.72265 4.7244094,4.7244094 0 0 0 -4.724606,-4.72461 z m -12.751953,0.0625 a 4.7244094,4.7244094 0 0 0 -4.724609,4.72461 4.7244094,4.7244094 0 0 0 4.724609,4.72461 4.7244094,4.7244094 0 0 0 4.72461,-4.72461 4.7244094,4.7244094 0 0 0 -4.72461,-4.72461 z m -14.474609,0.5039 a 4.7244094,4.7244094 0 0 0 -4.72461,4.72461 4.7244094,4.7244094 0 0 0 4.72461,4.72461 4.7244094,4.7244094 0 0 0 4.724609,-4.72461 4.7244094,4.7244094 0 0 0 -4.724609,-4.72461 z m -13.810547,0.12696 a 4.7244094,4.7244094 0 0 0 -4.724609,4.72461 4.7244094,4.7244094 0 0 0 4.724609,4.72461 4.7244094,4.7244094 0 0 0 4.724609,-4.72461 4.7244094,4.7244094 0 0 0 -4.724609,-4.72461 z m -28.03125,0.25195 a 4.7244094,4.7244094 0 0 0 -4.724609,4.72461 4.7244094,4.7244094 0 0 0 4.724609,4.72461 4.7244094,4.7244094 0 0 0 4.724609,-4.72461 4.7244094,4.7244094 0 0 0 -4.724609,-4.72461 z m 14.078125,0.18945 a 4.7244094,4.7244094 0 0 0 -4.724609,4.72461 4.7244094,4.7244094 0 0 0 4.724609,4.72461 4.7244094,4.7244094 0 0 0 4.724609,-4.72461 4.7244094,4.7244094 0 0 0 -4.724609,-4.72461 z M 85,124.66797 A 4.7244094,4.7244094 0 0 0 80.275391,129.39258 4.7244094,4.7244094 0 0 0 85,134.11719 4.7244094,4.7244094 0 0 0 89.724609,129.39258 4.7244094,4.7244094 0 0 0 85,124.66797 Z m -0.267578,14.46484 a 4.7244094,4.7244094 0 0 0 -4.72461,4.72461 4.7244094,4.7244094 0 0 0 4.72461,4.72461 4.7244094,4.7244094 0 0 0 4.724609,-4.72461 4.7244094,4.7244094 0 0 0 -4.724609,-4.72461 z m -0.08984,15 a 4.7244094,4.7244094 0 0 0 -4.724609,4.72461 4.7244094,4.7244094 0 0 0 4.724609,4.72461 4.7244094,4.7244094 0 0 0 4.72461,-4.72461 4.7244094,4.7244094 0 0 0 -4.72461,-4.72461 z"
       transform="scale(0.26458333)"
       id="path2396-76-5-0-4-5-55-3"
       inkscape:connector-curvature="0"
       inkscape:export-filename="E:\Outsourced Documents\Godot Projects\PassInfSys.G\assets\png\ks\zs3\zs3_kz4.png"
       inkscape:export-xdpi="350"
       inkscape:export-ydpi="350" />
  </g>
  <g
     inkscape:groupmode="layer"
     id="layer8"
     inkscape:label="Kz10"
     style="display:none">
    <path
       style="display:inline;opacity:1;fill:#f7b10f;fill-opacity:1;stroke:none;stroke-width:2.18640852;stroke-linecap:round;stroke-linejoin:round;stroke-miterlimit:4;stroke-dasharray:none;stroke-dashoffset:0;stroke-opacity:1;paint-order:markers fill stroke"
       d="m 78.011719,44.517578 a 4.7244094,4.7244094 0 0 0 -4.72461,4.72461 4.7244094,4.7244094 0 0 0 4.72461,4.724609 4.7244094,4.7244094 0 0 0 4.724609,-4.724609 4.7244094,4.7244094 0 0 0 -4.724609,-4.72461 z m 14.017578,0.296875 a 4.7244094,4.7244094 0 0 0 -4.724609,4.722656 4.7244094,4.7244094 0 0 0 4.724609,4.72461 4.7244094,4.7244094 0 0 0 4.724609,-4.72461 4.7244094,4.7244094 0 0 0 -4.724609,-4.722656 z m -53.275391,1.582031 a 4.7244094,4.7244094 0 0 0 -4.724609,4.72461 4.7244094,4.7244094 0 0 0 4.724609,4.724609 4.7244094,4.7244094 0 0 0 4.72461,-4.724609 4.7244094,4.7244094 0 0 0 -4.72461,-4.72461 z m -11.283203,3.976563 a 4.7244094,4.7244094 0 0 0 -4.724609,4.724609 4.7244094,4.7244094 0 0 0 4.724609,4.72461 4.7244094,4.7244094 0 0 0 4.724609,-4.72461 4.7244094,4.7244094 0 0 0 -4.724609,-4.724609 z m 78.060547,2.519531 a 4.7244094,4.7244094 0 0 0 -4.72461,4.72461 4.7244094,4.7244094 0 0 0 4.72461,4.724609 4.7244094,4.7244094 0 0 0 4.72461,-4.724609 4.7244094,4.7244094 0 0 0 -4.72461,-4.72461 z m -39.277344,0.636719 a 4.7244094,4.7244094 0 0 0 -4.724609,4.724609 4.7244094,4.7244094 0 0 0 4.724609,4.722656 4.7244094,4.7244094 0 0 0 4.72461,-4.722656 4.7244094,4.7244094 0 0 0 -4.72461,-4.724609 z m -27.861328,7.578125 a 4.7244094,4.7244094 0 0 0 -4.724609,4.724609 4.7244094,4.7244094 0 0 0 4.724609,4.72461 4.7244094,4.7244094 0 0 0 4.72461,-4.72461 4.7244094,4.7244094 0 0 0 -4.72461,-4.724609 z m -18.072266,0.09961 a 4.7244094,4.7244094 0 0 0 -4.722656,4.72461 4.7244094,4.7244094 0 0 0 4.722656,4.724609 4.7244094,4.7244094 0 0 0 4.72461,-4.724609 4.7244094,4.7244094 0 0 0 -4.72461,-4.72461 z m 89.902348,4.519531 a 4.7244094,4.7244094 0 0 0 -4.72461,4.72461 4.7244094,4.7244094 0 0 0 4.72461,4.724609 4.7244094,4.7244094 0 0 0 4.72461,-4.724609 4.7244094,4.7244094 0 0 0 -4.72461,-4.72461 z m -48.078129,0.302735 a 4.7244094,4.7244094 0 0 0 -4.722656,4.724609 4.7244094,4.7244094 0 0 0 4.722656,4.72461 4.7244094,4.7244094 0 0 0 4.72461,-4.72461 4.7244094,4.7244094 0 0 0 -4.72461,-4.724609 z m -23.380859,7.558594 a 4.7244094,4.7244094 0 0 0 -4.722656,4.724609 4.7244094,4.7244094 0 0 0 4.722656,4.724609 4.7244094,4.7244094 0 0 0 4.724609,-4.724609 4.7244094,4.7244094 0 0 0 -4.724609,-4.724609 z m 71.738278,6.61914 a 4.7244094,4.7244094 0 0 0 -4.72265,4.72461 4.7244094,4.7244094 0 0 0 4.72265,4.724609 4.7244094,4.7244094 0 0 0 4.72461,-4.724609 4.7244094,4.7244094 0 0 0 -4.72461,-4.72461 z m -48.662106,0.845703 a 4.7244094,4.7244094 0 0 0 -4.72461,4.72461 4.7244094,4.7244094 0 0 0 4.72461,4.724609 4.7244094,4.7244094 0 0 0 4.724609,-4.724609 4.7244094,4.7244094 0 0 0 -4.724609,-4.72461 z m -22.896485,7.054688 a 4.7244094,4.7244094 0 0 0 -4.724609,4.724609 4.7244094,4.7244094 0 0 0 4.724609,4.72461 4.7244094,4.7244094 0 0 0 4.72461,-4.72461 4.7244094,4.7244094 0 0 0 -4.72461,-4.724609 z m 22.962891,7.582031 a 4.7244094,4.7244094 0 0 0 -4.724609,4.722656 4.7244094,4.7244094 0 0 0 4.724609,4.72461 4.7244094,4.7244094 0 0 0 4.724609,-4.72461 4.7244094,4.7244094 0 0 0 -4.724609,-4.722656 z m 48.58398,0.259766 a 4.7244094,4.7244094 0 0 0 -4.72461,4.72461 4.7244094,4.7244094 0 0 0 4.72461,4.72461 4.7244094,4.7244094 0 0 0 4.72461,-4.72461 4.7244094,4.7244094 0 0 0 -4.72461,-4.72461 z m -71.67773,6.94726 a 4.7244094,4.7244094 0 0 0 -4.724609,4.72461 4.7244094,4.7244094 0 0 0 4.724609,4.72266 4.7244094,4.7244094 0 0 0 4.724609,-4.72266 4.7244094,4.7244094 0 0 0 -4.724609,-4.72461 z m 23.125,7.63282 a 4.7244094,4.7244094 0 0 0 -4.722656,4.72461 4.7244094,4.7244094 0 0 0 4.722656,4.72461 4.7244094,4.7244094 0 0 0 4.724609,-4.72461 4.7244094,4.7244094 0 0 0 -4.724609,-4.72461 z m 48.66406,0.8457 a 4.7244094,4.7244094 0 0 0 -4.72461,4.72461 4.7244094,4.7244094 0 0 0 4.72461,4.72461 4.7244094,4.7244094 0 0 0 4.72266,-4.72461 4.7244094,4.7244094 0 0 0 -4.72266,-4.72461 z m -71.804685,5.68359 a 4.7244094,4.7244094 0 0 0 -4.724609,4.72461 4.7244094,4.7244094 0 0 0 4.724609,4.72266 4.7244094,4.7244094 0 0 0 4.724609,-4.72266 4.7244094,4.7244094 0 0 0 -4.724609,-4.72461 z m 23.447266,8.49414 a 4.7244094,4.7244094 0 0 0 -4.72461,4.72461 4.7244094,4.7244094 0 0 0 4.72461,4.72461 4.7244094,4.7244094 0 0 0 4.722656,-4.72461 4.7244094,4.7244094 0 0 0 -4.722656,-4.72461 z m 48.076169,0.30274 a 4.7244094,4.7244094 0 0 0 -4.72265,4.72461 4.7244094,4.7244094 0 0 0 4.72265,4.72461 4.7244094,4.7244094 0 0 0 4.72461,-4.72461 4.7244094,4.7244094 0 0 0 -4.72461,-4.72461 z m -71.650388,6.01172 a 4.7244094,4.7244094 0 0 0 -4.72461,4.72461 4.7244094,4.7244094 0 0 0 4.72461,4.72461 4.7244094,4.7244094 0 0 0 4.724609,-4.72461 4.7244094,4.7244094 0 0 0 -4.724609,-4.72461 z m 27.68164,6.1875 a 4.7244094,4.7244094 0 0 0 -4.724609,4.72265 4.7244094,4.7244094 0 0 0 4.724609,4.72461 4.7244094,4.7244094 0 0 0 4.72461,-4.72461 4.7244094,4.7244094 0 0 0 -4.72461,-4.72265 z m 39.277348,0.63476 a 4.7244094,4.7244094 0 0 0 -4.72461,4.72461 4.7244094,4.7244094 0 0 0 4.72461,4.72461 4.7244094,4.7244094 0 0 0 4.72461,-4.72461 4.7244094,4.7244094 0 0 0 -4.72461,-4.72461 z m -13.501957,8.08008 a 4.7244094,4.7244094 0 0 0 -4.724609,4.72461 4.7244094,4.7244094 0 0 0 4.724609,4.72266 4.7244094,4.7244094 0 0 0 4.724609,-4.72266 4.7244094,4.7244094 0 0 0 -4.724609,-4.72461 z m -53.277344,0.24805 a 4.7244094,4.7244094 0 0 0 -4.724609,4.72461 4.7244094,4.7244094 0 0 0 4.724609,4.72461 4.7244094,4.7244094 0 0 0 4.722657,-4.72461 4.7244094,4.7244094 0 0 0 -4.722657,-4.72461 z m 39.259766,0.0469 a 4.7244094,4.7244094 0 0 0 -4.722656,4.72461 4.7244094,4.7244094 0 0 0 4.722656,4.72461 4.7244094,4.7244094 0 0 0 4.724609,-4.72461 4.7244094,4.7244094 0 0 0 -4.724609,-4.72461 z"
       transform="scale(0.26458333)"
       id="path2396-76-5-0-4-5-55-47"
       inkscape:connector-curvature="0" />
  </g>
</svg>
