<?xml version="1.0" encoding="UTF-8" standalone="no"?>
<svg
   xmlns:dc="http://purl.org/dc/elements/1.1/"
   xmlns:cc="http://creativecommons.org/ns#"
   xmlns:rdf="http://www.w3.org/1999/02/22-rdf-syntax-ns#"
   xmlns:svg="http://www.w3.org/2000/svg"
   xmlns="http://www.w3.org/2000/svg"
   id="svg8"
   version="1.1"
   viewBox="0 0 35 52"
   height="52mm"
   width="35mm">
  <defs
     id="defs2" />
  <metadata
     id="metadata5">
    <rdf:RDF>
      <cc:Work
         rdf:about="">
        <dc:format>image/svg+xml</dc:format>
        <dc:type
           rdf:resource="http://purl.org/dc/dcmitype/StillImage" />
        <dc:title></dc:title>
      </cc:Work>
    </rdf:RDF>
  </metadata>
  <g
     style="display:inline"
     transform="translate(-7.5,-160)"
     id="layer1">
    <rect
       y="160"
       x="7.5"
       height="52"
       width="35"
       id="rect815-2"
       style="opacity:1;fill:#1e1e1e;fill-opacity:1;stroke:none;stroke-width:0.25665033;stroke-linecap:round;stroke-linejoin:round;stroke-miterlimit:4;stroke-dasharray:none;stroke-dashoffset:0;stroke-opacity:1;paint-order:markers fill stroke" />
    <rect
       y="162.5"
       x="10"
       height="47"
       width="30"
       id="rect815-2-8"
       style="opacity:1;fill:#0f0f0f;fill-opacity:1;stroke:none;stroke-width:0.22589973;stroke-linecap:round;stroke-linejoin:round;stroke-miterlimit:4;stroke-dasharray:none;stroke-dashoffset:0;stroke-opacity:1;paint-order:markers fill stroke" />
  </g>
  <g
     style="display:inline"
     id="layer2">
    <path
       id="path2396"
       transform="scale(0.26458333)"
       d="m 78.660156,37.703125 a 4.7244094,4.7244094 0 0 0 -4.724609,4.724609 4.7244094,4.7244094 0 0 0 4.724609,4.72461 4.7244094,4.7244094 0 0 0 4.72461,-4.72461 4.7244094,4.7244094 0 0 0 -4.72461,-4.724609 z M 72.5,50.115234 A 4.7244094,4.7244094 0 0 0 67.775391,54.839844 4.7244094,4.7244094 0 0 0 72.5,59.5625 4.7244094,4.7244094 0 0 0 77.224609,54.839844 4.7244094,4.7244094 0 0 0 72.5,50.115234 Z M 65.089844,62.525391 A 4.7244094,4.7244094 0 0 0 60.365234,67.25 4.7244094,4.7244094 0 0 0 65.089844,71.974609 4.7244094,4.7244094 0 0 0 69.814453,67.25 4.7244094,4.7244094 0 0 0 65.089844,62.525391 Z m -7.794922,11.615234 a 4.7244094,4.7244094 0 0 0 -4.72461,4.724609 4.7244094,4.7244094 0 0 0 4.72461,4.72461 4.7244094,4.7244094 0 0 0 4.724609,-4.72461 4.7244094,4.7244094 0 0 0 -4.724609,-4.724609 z m -7.386719,11.773437 a 4.7244094,4.7244094 0 0 0 -4.724609,4.72461 4.7244094,4.7244094 0 0 0 4.724609,4.724609 4.7244094,4.7244094 0 0 0 4.724609,-4.724609 4.7244094,4.7244094 0 0 0 -4.724609,-4.72461 z m 23.822266,12.365235 a 4.7244094,4.7244094 0 0 0 -4.72461,4.722653 4.7244094,4.7244094 0 0 0 4.72461,4.72461 4.7244094,4.7244094 0 0 0 4.724609,-4.72461 4.7244094,4.7244094 0 0 0 -4.724609,-4.722653 z m -14.3125,0.201172 a 4.7244094,4.7244094 0 0 0 -4.72461,4.724611 4.7244094,4.7244094 0 0 0 4.72461,4.72461 4.7244094,4.7244094 0 0 0 4.724609,-4.72461 4.7244094,4.7244094 0 0 0 -4.724609,-4.724611 z m -16.595703,0.65039 a 4.7244094,4.7244094 0 0 0 -4.72461,4.724611 4.7244094,4.7244094 0 0 0 4.72461,4.72461 4.7244094,4.7244094 0 0 0 4.724609,-4.72461 4.7244094,4.7244094 0 0 0 -4.724609,-4.724611 z m 43.992187,3.939451 a 4.7244094,4.7244094 0 0 0 -4.724609,4.72461 4.7244094,4.7244094 0 0 0 4.724609,4.72461 4.7244094,4.7244094 0 0 0 4.724609,-4.72461 4.7244094,4.7244094 0 0 0 -4.724609,-4.72461 z m -50.175781,9.14258 a 4.7244094,4.7244094 0 0 0 -4.722656,4.72461 4.7244094,4.7244094 0 0 0 4.722656,4.72461 4.7244094,4.7244094 0 0 0 4.724609,-4.72461 4.7244094,4.7244094 0 0 0 -4.724609,-4.72461 z m 59.076172,2.00977 a 4.7244094,4.7244094 0 0 0 -4.72461,4.72265 4.7244094,4.7244094 0 0 0 4.72461,4.72461 4.7244094,4.7244094 0 0 0 4.724606,-4.72461 4.7244094,4.7244094 0 0 0 -4.724606,-4.72265 z m -61.404297,10.63086 a 4.7244094,4.7244094 0 0 0 -4.722656,4.7246 4.7244094,4.7244094 0 0 0 4.722656,4.72461 4.7244094,4.7244094 0 0 0 4.724609,-4.72461 4.7244094,4.7244094 0 0 0 -4.724609,-4.7246 z m 63.753906,1.87109 a 4.7244094,4.7244094 0 0 0 -4.722656,4.72461 4.7244094,4.7244094 0 0 0 4.722656,4.72461 4.7244094,4.7244094 0 0 0 4.724607,-4.72461 4.7244094,4.7244094 0 0 0 -4.724607,-4.72461 z m -61.292969,10.80273 a 4.7244094,4.7244094 0 0 0 -4.722656,4.72461 4.7244094,4.7244094 0 0 0 4.722656,4.72461 4.7244094,4.7244094 0 0 0 4.72461,-4.72461 4.7244094,4.7244094 0 0 0 -4.72461,-4.72461 z m 58.808594,1.07032 a 4.7244094,4.7244094 0 0 0 -4.724609,4.72265 4.7244094,4.7244094 0 0 0 4.724609,4.72461 4.7244094,4.7244094 0 0 0 4.724612,-4.72461 4.7244094,4.7244094 0 0 0 -4.724612,-4.72265 z m -52.324219,10.08593 a 4.7244094,4.7244094 0 0 0 -4.722656,4.72461 4.7244094,4.7244094 0 0 0 4.722656,4.72461 4.7244094,4.7244094 0 0 0 4.72461,-4.72461 4.7244094,4.7244094 0 0 0 -4.72461,-4.72461 z m 45.404297,0.89453 a 4.7244094,4.7244094 0 0 0 -4.724609,4.72461 4.7244094,4.7244094 0 0 0 4.724609,4.72461 4.7244094,4.7244094 0 0 0 4.72461,-4.72461 4.7244094,4.7244094 0 0 0 -4.72461,-4.72461 z m -10.08789,6.96485 a 4.7244094,4.7244094 0 0 0 -4.72461,4.72461 4.7244094,4.7244094 0 0 0 4.72461,4.72461 4.7244094,4.7244094 0 0 0 4.722656,-4.72461 4.7244094,4.7244094 0 0 0 -4.722656,-4.72461 z m -25.042969,0.17578 a 4.7244094,4.7244094 0 0 0 -4.724609,4.72461 4.7244094,4.7244094 0 0 0 4.724609,4.72461 4.7244094,4.7244094 0 0 0 4.724609,-4.72461 4.7244094,4.7244094 0 0 0 -4.724609,-4.72461 z m 12.65625,2.61328 a 4.7244094,4.7244094 0 0 0 -4.722656,4.72461 4.7244094,4.7244094 0 0 0 4.722656,4.72461 4.7244094,4.7244094 0 0 0 4.724609,-4.72461 4.7244094,4.7244094 0 0 0 -4.724609,-4.72461 z"
       style="opacity:1;fill:#ffffff;fill-opacity:1;stroke:none;stroke-width:2.18640828;stroke-linecap:round;stroke-linejoin:round;stroke-miterlimit:4;stroke-dasharray:none;stroke-dashoffset:0;stroke-opacity:1;paint-order:markers fill stroke" />
  </g>
  <g
     style="display:inline"
     id="layer3">
    <path
       id="path2396-76-5"
       transform="scale(0.26458333)"
       d="m 66.101562,38.457031 a 4.7244094,4.7244094 0 0 0 -4.724609,4.72461 4.7244094,4.7244094 0 0 0 4.724609,4.724609 4.7244094,4.7244094 0 0 0 4.72461,-4.724609 4.7244094,4.7244094 0 0 0 -4.72461,-4.72461 z M 53.589844,41.59375 a 4.7244094,4.7244094 0 0 0 -4.72461,4.724609 4.7244094,4.7244094 0 0 0 4.72461,4.72461 4.7244094,4.7244094 0 0 0 4.724609,-4.72461 4.7244094,4.7244094 0 0 0 -4.724609,-4.724609 z m 25.011718,0.08398 a 4.7244094,4.7244094 0 0 0 -4.722656,4.72461 4.7244094,4.7244094 0 0 0 4.722656,4.722656 4.7244094,4.7244094 0 0 0 4.72461,-4.722656 4.7244094,4.7244094 0 0 0 -4.72461,-4.72461 z m -34.607421,8.501954 a 4.7244094,4.7244094 0 0 0 -4.72461,4.724609 4.7244094,4.7244094 0 0 0 4.72461,4.724609 4.7244094,4.7244094 0 0 0 4.724609,-4.724609 4.7244094,4.7244094 0 0 0 -4.724609,-4.724609 z m 44.205078,0.08398 a 4.7244094,4.7244094 0 0 0 -4.72461,4.724609 4.7244094,4.7244094 0 0 0 4.72461,4.72461 4.7244094,4.7244094 0 0 0 4.724609,-4.72461 4.7244094,4.7244094 0 0 0 -4.724609,-4.724609 z M 39.132812,61.986328 a 4.7244094,4.7244094 0 0 0 -4.724609,4.72461 4.7244094,4.7244094 0 0 0 4.724609,4.724609 4.7244094,4.7244094 0 0 0 4.72461,-4.724609 4.7244094,4.7244094 0 0 0 -4.72461,-4.72461 z m 53.927735,0.08398 a 4.7244094,4.7244094 0 0 0 -4.724609,4.72461 4.7244094,4.7244094 0 0 0 4.724609,4.722656 4.7244094,4.7244094 0 0 0 4.724609,-4.722656 4.7244094,4.7244094 0 0 0 -4.724609,-4.72461 z m -52.666016,12.98438 a 4.7244094,4.7244094 0 0 0 -4.724609,4.724609 4.7244094,4.7244094 0 0 0 4.724609,4.724609 4.7244094,4.7244094 0 0 0 4.72461,-4.724609 4.7244094,4.7244094 0 0 0 -4.72461,-4.724609 z m 51.402344,0.08398 a 4.7244094,4.7244094 0 0 0 -4.724609,4.724609 4.7244094,4.7244094 0 0 0 4.724609,4.72461 4.7244094,4.7244094 0 0 0 4.724609,-4.72461 4.7244094,4.7244094 0 0 0 -4.724609,-4.724609 z M 47.466797,85.472656 a 4.7244094,4.7244094 0 0 0 -4.724609,4.722656 4.7244094,4.7244094 0 0 0 4.724609,4.72461 4.7244094,4.7244094 0 0 0 4.724609,-4.72461 4.7244094,4.7244094 0 0 0 -4.724609,-4.722656 z m 37.259765,0.08203 a 4.7244094,4.7244094 0 0 0 -4.724609,4.724609 4.7244094,4.7244094 0 0 0 4.724609,4.724609 4.7244094,4.7244094 0 0 0 4.72461,-4.724609 4.7244094,4.7244094 0 0 0 -4.72461,-4.724609 z m -11.779296,7.505859 a 4.7244094,4.7244094 0 0 0 -4.72461,4.724609 4.7244094,4.7244094 0 0 0 4.72461,4.724616 4.7244094,4.7244094 0 0 0 4.722656,-4.724616 4.7244094,4.7244094 0 0 0 -4.722656,-4.724609 z m -14.019532,0.08984 a 4.7244094,4.7244094 0 0 0 -4.722656,4.724609 4.7244094,4.7244094 0 0 0 4.722656,4.724606 4.7244094,4.7244094 0 0 0 4.72461,-4.724606 4.7244094,4.7244094 0 0 0 -4.72461,-4.724609 z M 46.632812,98.75 a 4.7244094,4.7244094 0 0 0 -4.724609,4.72461 4.7244094,4.7244094 0 0 0 4.724609,4.72461 4.7244094,4.7244094 0 0 0 4.722657,-4.72461 A 4.7244094,4.7244094 0 0 0 46.632812,98.75 Z m 38.902344,0.115234 a 4.7244094,4.7244094 0 0 0 -4.724609,4.724606 4.7244094,4.7244094 0 0 0 4.724609,4.72266 4.7244094,4.7244094 0 0 0 4.72461,-4.72266 4.7244094,4.7244094 0 0 0 -4.72461,-4.724606 z M 37.970703,109.28516 a 4.7244094,4.7244094 0 0 0 -4.724609,4.72461 4.7244094,4.7244094 0 0 0 4.724609,4.72461 4.7244094,4.7244094 0 0 0 4.724609,-4.72461 4.7244094,4.7244094 0 0 0 -4.724609,-4.72461 z m 56.226563,0.11523 a 4.7244094,4.7244094 0 0 0 -4.72461,4.72461 4.7244094,4.7244094 0 0 0 4.72461,4.72461 4.7244094,4.7244094 0 0 0 4.722656,-4.72461 4.7244094,4.7244094 0 0 0 -4.722656,-4.72461 z m -60.244141,12.92188 a 4.7244094,4.7244094 0 0 0 -4.724609,4.72265 4.7244094,4.7244094 0 0 0 4.724609,4.72461 4.7244094,4.7244094 0 0 0 4.724609,-4.72461 4.7244094,4.7244094 0 0 0 -4.724609,-4.72265 z m 64.261719,0.11328 a 4.7244094,4.7244094 0 0 0 -4.72461,4.72461 4.7244094,4.7244094 0 0 0 4.72461,4.72461 4.7244094,4.7244094 0 0 0 4.724606,-4.72461 4.7244094,4.7244094 0 0 0 -4.724606,-4.72461 z m -63.369141,12.92187 a 4.7244094,4.7244094 0 0 0 -4.724609,4.72461 4.7244094,4.7244094 0 0 0 4.724609,4.72461 4.7244094,4.7244094 0 0 0 4.724609,-4.72461 4.7244094,4.7244094 0 0 0 -4.724609,-4.72461 z m 62.476563,0.11524 a 4.7244094,4.7244094 0 0 0 -4.72461,4.72265 4.7244094,4.7244094 0 0 0 4.72461,4.72461 4.7244094,4.7244094 0 0 0 4.722654,-4.72461 4.7244094,4.7244094 0 0 0 -4.722654,-4.72265 z m -55.511719,10.86718 a 4.7244094,4.7244094 0 0 0 -4.724609,4.72461 4.7244094,4.7244094 0 0 0 4.724609,4.72461 4.7244094,4.7244094 0 0 0 4.724609,-4.72461 4.7244094,4.7244094 0 0 0 -4.724609,-4.72461 z m 48.546875,0.11328 a 4.7244094,4.7244094 0 0 0 -4.72461,4.72461 4.7244094,4.7244094 0 0 0 4.72461,4.72461 4.7244094,4.7244094 0 0 0 4.724609,-4.72461 4.7244094,4.7244094 0 0 0 -4.724609,-4.72461 z m -37.654297,7.56446 a 4.7244094,4.7244094 0 0 0 -4.724609,4.72461 4.7244094,4.7244094 0 0 0 4.724609,4.72461 4.7244094,4.7244094 0 0 0 4.724609,-4.72461 4.7244094,4.7244094 0 0 0 -4.724609,-4.72461 z m 26.761719,0.11523 a 4.7244094,4.7244094 0 0 0 -4.72461,4.72461 4.7244094,4.7244094 0 0 0 4.72461,4.72461 4.7244094,4.7244094 0 0 0 4.724609,-4.72461 4.7244094,4.7244094 0 0 0 -4.724609,-4.72461 z m -13.34961,2.8125 a 4.7244094,4.7244094 0 0 0 -4.722656,4.72461 4.7244094,4.7244094 0 0 0 4.722656,4.72461 4.7244094,4.7244094 0 0 0 4.72461,-4.72461 4.7244094,4.7244094 0 0 0 -4.72461,-4.72461 z"
       style="display:inline;opacity:1;fill:#ffffff;fill-opacity:1;stroke:none;stroke-width:2.18640852;stroke-linecap:round;stroke-linejoin:round;stroke-miterlimit:4;stroke-dasharray:none;stroke-dashoffset:0;stroke-opacity:1;paint-order:markers fill stroke" />
  </g>
  <g
     style="display:inline"
     id="layer4">
    <path
       id="path2396-76-5-0-4-5"
       transform="scale(0.26458333)"
       d="m 75.28125,30.787109 a 4.7244094,4.7244094 0 0 0 -4.724609,4.72461 4.7244094,4.7244094 0 0 0 4.724609,4.724609 4.7244094,4.7244094 0 0 0 4.724609,-4.724609 4.7244094,4.7244094 0 0 0 -4.724609,-4.72461 z m -36.390625,0.03125 a 4.7244094,4.7244094 0 0 0 -4.724609,4.72461 4.7244094,4.7244094 0 0 0 4.724609,4.724609 4.7244094,4.7244094 0 0 0 4.724609,-4.724609 4.7244094,4.7244094 0 0 0 -4.724609,-4.72461 z m 18.5625,0.183594 a 4.7244094,4.7244094 0 0 0 -4.724609,4.724609 4.7244094,4.7244094 0 0 0 4.724609,4.72461 4.7244094,4.7244094 0 0 0 4.724609,-4.72461 4.7244094,4.7244094 0 0 0 -4.724609,-4.724609 z M 91.46875,31.28125 a 4.7244094,4.7244094 0 0 0 -4.724609,4.724609 4.7244094,4.7244094 0 0 0 4.724609,4.72461 4.7244094,4.7244094 0 0 0 4.724609,-4.72461 A 4.7244094,4.7244094 0 0 0 91.46875,31.28125 Z M 38.763672,46.095703 a 4.7244094,4.7244094 0 0 0 -4.722656,4.724609 4.7244094,4.7244094 0 0 0 4.722656,4.72461 4.7244094,4.7244094 0 0 0 4.724609,-4.72461 4.7244094,4.7244094 0 0 0 -4.724609,-4.724609 z m 0,15.910156 a 4.7244094,4.7244094 0 0 0 -4.722656,4.72461 4.7244094,4.7244094 0 0 0 4.722656,4.724609 4.7244094,4.7244094 0 0 0 4.724609,-4.724609 4.7244094,4.7244094 0 0 0 -4.724609,-4.72461 z m -0.251953,15.910157 a 4.7244094,4.7244094 0 0 0 -4.72461,4.724609 4.7244094,4.7244094 0 0 0 4.72461,4.724609 4.7244094,4.7244094 0 0 0 4.724609,-4.724609 4.7244094,4.7244094 0 0 0 -4.724609,-4.724609 z m 16.289062,12.753906 a 4.7244094,4.7244094 0 0 0 -4.724609,4.724609 4.7244094,4.7244094 0 0 0 4.724609,4.724609 4.7244094,4.7244094 0 0 0 4.72461,-4.724609 4.7244094,4.7244094 0 0 0 -4.72461,-4.724609 z m 18.435547,0.503906 a 4.7244094,4.7244094 0 0 0 -4.724609,4.72461 4.7244094,4.7244094 0 0 0 4.724609,4.724612 4.7244094,4.7244094 0 0 0 4.72461,-4.724612 4.7244094,4.7244094 0 0 0 -4.72461,-4.72461 z m -34.472656,3.410156 a 4.7244094,4.7244094 0 0 0 -4.722656,4.72461 4.7244094,4.7244094 0 0 0 4.722656,4.724606 4.7244094,4.7244094 0 0 0 4.724609,-4.724606 4.7244094,4.7244094 0 0 0 -4.724609,-4.72461 z m 50.382812,5.177735 a 4.7244094,4.7244094 0 0 0 -4.724609,4.722661 4.7244094,4.7244094 0 0 0 4.724609,4.7246 4.7244094,4.7244094 0 0 0 4.72461,-4.7246 4.7244094,4.7244094 0 0 0 -4.72461,-4.722661 z M 99.5,115.16602 a 4.7244094,4.7244094 0 0 0 -4.724609,4.7246 4.7244094,4.7244094 0 0 0 4.724609,4.72461 4.7244094,4.7244094 0 0 0 4.72461,-4.72461 4.7244094,4.7244094 0 0 0 -4.72461,-4.7246 z m 0.88477,17.42578 a 4.7244094,4.7244094 0 0 0 -4.724614,4.72265 4.7244094,4.7244094 0 0 0 4.724614,4.72461 4.7244094,4.7244094 0 0 0 4.72265,-4.72461 4.7244094,4.7244094 0 0 0 -4.72265,-4.72265 z m -62.111332,14.10742 a 4.7244094,4.7244094 0 0 0 -4.72461,4.72461 4.7244094,4.7244094 0 0 0 4.72461,4.72265 4.7244094,4.7244094 0 0 0 4.724609,-4.72265 4.7244094,4.7244094 0 0 0 -4.724609,-4.72461 z m 56.554687,2.30664 a 4.7244094,4.7244094 0 0 0 -4.724609,4.72461 4.7244094,4.7244094 0 0 0 4.724609,4.72461 4.7244094,4.7244094 0 0 0 4.724609,-4.72461 4.7244094,4.7244094 0 0 0 -4.724609,-4.72461 z m -45.119141,8.61133 a 4.7244094,4.7244094 0 0 0 -4.724609,4.72265 4.7244094,4.7244094 0 0 0 4.724609,4.72461 4.7244094,4.7244094 0 0 0 4.72461,-4.72461 4.7244094,4.7244094 0 0 0 -4.72461,-4.72265 z m 31.986328,0.73242 a 4.7244094,4.7244094 0 0 0 -4.724609,4.72461 4.7244094,4.7244094 0 0 0 4.724609,4.72461 4.7244094,4.7244094 0 0 0 4.72461,-4.72461 4.7244094,4.7244094 0 0 0 -4.72461,-4.72461 z m -15.402343,2.31055 a 4.7244094,4.7244094 0 0 0 -4.722657,4.72461 4.7244094,4.7244094 0 0 0 4.722657,4.72265 4.7244094,4.7244094 0 0 0 4.724609,-4.72265 4.7244094,4.7244094 0 0 0 -4.724609,-4.72461 z"
       style="display:inline;opacity:1;fill:#ffffff;fill-opacity:1;stroke:none;stroke-width:2.18640852;stroke-linecap:round;stroke-linejoin:round;stroke-miterlimit:4;stroke-dasharray:none;stroke-dashoffset:0;stroke-opacity:1;paint-order:markers fill stroke" />
  </g>
  <g
     style="display:inline"
     id="layer6">
    <path
       id="path2396-76-5-0-4-5-55"
       transform="scale(0.26458333)"
       d="m 52.402344,41.550781 a 4.7244094,4.7244094 0 0 0 -4.72461,4.72461 4.7244094,4.7244094 0 0 0 4.72461,4.724609 4.7244094,4.7244094 0 0 0 4.724609,-4.724609 4.7244094,4.7244094 0 0 0 -4.724609,-4.72461 z m -17.173828,0.0625 a 4.7244094,4.7244094 0 0 0 -4.72461,4.72461 4.7244094,4.7244094 0 0 0 4.72461,4.724609 4.7244094,4.7244094 0 0 0 4.724609,-4.724609 4.7244094,4.7244094 0 0 0 -4.724609,-4.72461 z m 33.083984,0 a 4.7244094,4.7244094 0 0 0 -4.724609,4.72461 4.7244094,4.7244094 0 0 0 4.724609,4.724609 4.7244094,4.7244094 0 0 0 4.722656,-4.724609 4.7244094,4.7244094 0 0 0 -4.722656,-4.72461 z m 16.777344,0.08984 a 4.7244094,4.7244094 0 0 0 -4.72461,4.724609 4.7244094,4.7244094 0 0 0 4.72461,4.72461 4.7244094,4.7244094 0 0 0 4.724609,-4.72461 4.7244094,4.7244094 0 0 0 -4.724609,-4.724609 z m 15.562496,0.08398 a 4.7244094,4.7244094 0 0 0 -4.724606,4.72461 4.7244094,4.7244094 0 0 0 4.724606,4.724609 4.7244094,4.7244094 0 0 0 4.72461,-4.724609 4.7244094,4.7244094 0 0 0 -4.72461,-4.72461 z m -0.25,18.109375 a 4.7244094,4.7244094 0 0 0 -4.724606,4.72461 4.7244094,4.7244094 0 0 0 4.724606,4.724609 4.7244094,4.7244094 0 0 0 4.72461,-4.724609 4.7244094,4.7244094 0 0 0 -4.72461,-4.72461 z m -11.888668,14.23243 a 4.7244094,4.7244094 0 0 0 -4.722656,4.72461 4.7244094,4.7244094 0 0 0 4.722656,4.722656 4.7244094,4.7244094 0 0 0 4.724609,-4.722656 4.7244094,4.7244094 0 0 0 -4.724609,-4.72461 z M 74.876953,88.017578 a 4.7244094,4.7244094 0 0 0 -4.724609,4.72461 4.7244094,4.7244094 0 0 0 4.724609,4.724609 4.7244094,4.7244094 0 0 0 4.724609,-4.724609 4.7244094,4.7244094 0 0 0 -4.724609,-4.72461 z M 61.619141,102.53906 a 4.7244094,4.7244094 0 0 0 -4.72461,4.72461 4.7244094,4.7244094 0 0 0 4.72461,4.72461 4.7244094,4.7244094 0 0 0 4.724609,-4.72461 4.7244094,4.7244094 0 0 0 -4.724609,-4.72461 z m -13.636719,14.01563 a 4.7244094,4.7244094 0 0 0 -4.72461,4.72461 4.7244094,4.7244094 0 0 0 4.72461,4.72461 4.7244094,4.7244094 0 0 0 4.724609,-4.72461 4.7244094,4.7244094 0 0 0 -4.724609,-4.72461 z m -13.636719,14.52148 a 4.7244094,4.7244094 0 0 0 -4.724609,4.72461 4.7244094,4.7244094 0 0 0 4.724609,4.72461 4.7244094,4.7244094 0 0 0 4.724609,-4.72461 4.7244094,4.7244094 0 0 0 -4.724609,-4.72461 z m 0.181641,17.66797 a 4.7244094,4.7244094 0 0 0 -4.72461,4.72461 4.7244094,4.7244094 0 0 0 4.72461,4.72461 4.7244094,4.7244094 0 0 0 4.724609,-4.72461 4.7244094,4.7244094 0 0 0 -4.724609,-4.72461 z"
       style="display:inline;opacity:1;fill:#ffffff;fill-opacity:1;stroke:none;stroke-width:2.18640852;stroke-linecap:round;stroke-linejoin:round;stroke-miterlimit:4;stroke-dasharray:none;stroke-dashoffset:0;stroke-opacity:1;paint-order:markers fill stroke" />
  </g>
  <g
     style="display:inline"
     id="layer7">
    <path
       id="path2396-76-5-0-4-5-55-3"
       transform="scale(0.26458333)"
       d="m 84.283203,36.974609 a 4.7244094,4.7244094 0 0 0 -4.724609,4.72461 4.7244094,4.7244094 0 0 0 4.724609,4.724609 4.7244094,4.7244094 0 0 0 4.722656,-4.724609 4.7244094,4.7244094 0 0 0 -4.722656,-4.72461 z M 72.521484,43.8125 a 4.7244094,4.7244094 0 0 0 -4.724609,4.724609 4.7244094,4.7244094 0 0 0 4.724609,4.72461 4.7244094,4.7244094 0 0 0 4.72461,-4.72461 4.7244094,4.7244094 0 0 0 -4.72461,-4.724609 z m 12.0625,7.953125 a 4.7244094,4.7244094 0 0 0 -4.724609,4.724609 4.7244094,4.7244094 0 0 0 4.724609,4.72461 4.7244094,4.7244094 0 0 0 4.72461,-4.72461 4.7244094,4.7244094 0 0 0 -4.72461,-4.724609 z m -21.160156,2.677734 a 4.7244094,4.7244094 0 0 0 -4.724609,4.72461 4.7244094,4.7244094 0 0 0 4.724609,4.724609 4.7244094,4.7244094 0 0 0 4.72461,-4.724609 4.7244094,4.7244094 0 0 0 -4.72461,-4.72461 z m -9.730469,10.53711 a 4.7244094,4.7244094 0 0 0 -4.724609,4.724609 4.7244094,4.7244094 0 0 0 4.724609,4.72461 4.7244094,4.7244094 0 0 0 4.72461,-4.72461 4.7244094,4.7244094 0 0 0 -4.72461,-4.724609 z m 31.111329,2.236328 a 4.7244094,4.7244094 0 0 0 -4.72461,4.724609 4.7244094,4.7244094 0 0 0 4.72461,4.72461 4.7244094,4.7244094 0 0 0 4.724609,-4.72461 4.7244094,4.7244094 0 0 0 -4.724609,-4.724609 z m -40.238282,8.994141 a 4.7244094,4.7244094 0 0 0 -4.724609,4.724609 4.7244094,4.7244094 0 0 0 4.724609,4.724609 4.7244094,4.7244094 0 0 0 4.72461,-4.724609 4.7244094,4.7244094 0 0 0 -4.72461,-4.724609 z m 40.511719,6.083984 a 4.7244094,4.7244094 0 0 0 -4.724609,4.724609 4.7244094,4.7244094 0 0 0 4.724609,4.72461 4.7244094,4.7244094 0 0 0 4.724609,-4.72461 4.7244094,4.7244094 0 0 0 -4.724609,-4.724609 z m -48.982422,4.515625 a 4.7244094,4.7244094 0 0 0 -4.724609,4.724609 4.7244094,4.7244094 0 0 0 4.724609,4.72461 4.7244094,4.7244094 0 0 0 4.724609,-4.72461 4.7244094,4.7244094 0 0 0 -4.724609,-4.724609 z m 49.082031,10.816406 a 4.7244094,4.7244094 0 0 0 -4.722656,4.724607 4.7244094,4.7244094 0 0 0 4.722656,4.72461 4.7244094,4.7244094 0 0 0 4.72461,-4.72461 4.7244094,4.7244094 0 0 0 -4.72461,-4.724607 z m -55.939453,0.613281 a 4.7244094,4.7244094 0 0 0 -4.724609,4.724606 4.7244094,4.7244094 0 0 0 4.724609,4.72461 4.7244094,4.7244094 0 0 0 4.72461,-4.72461 4.7244094,4.7244094 0 0 0 -4.72461,-4.724606 z m 68.408203,13.083986 a 4.7244094,4.7244094 0 0 0 -4.724609,4.72461 4.7244094,4.7244094 0 0 0 4.724609,4.72265 4.7244094,4.7244094 0 0 0 4.724606,-4.72265 4.7244094,4.7244094 0 0 0 -4.724606,-4.72461 z m -12.751953,0.0625 a 4.7244094,4.7244094 0 0 0 -4.724609,4.72461 4.7244094,4.7244094 0 0 0 4.724609,4.72461 4.7244094,4.7244094 0 0 0 4.72461,-4.72461 4.7244094,4.7244094 0 0 0 -4.72461,-4.72461 z m -14.474609,0.5039 a 4.7244094,4.7244094 0 0 0 -4.72461,4.72461 4.7244094,4.7244094 0 0 0 4.72461,4.72461 4.7244094,4.7244094 0 0 0 4.724609,-4.72461 4.7244094,4.7244094 0 0 0 -4.724609,-4.72461 z m -13.810547,0.12696 a 4.7244094,4.7244094 0 0 0 -4.724609,4.72461 4.7244094,4.7244094 0 0 0 4.724609,4.72461 4.7244094,4.7244094 0 0 0 4.724609,-4.72461 4.7244094,4.7244094 0 0 0 -4.724609,-4.72461 z m -28.03125,0.25195 a 4.7244094,4.7244094 0 0 0 -4.724609,4.72461 4.7244094,4.7244094 0 0 0 4.724609,4.72461 4.7244094,4.7244094 0 0 0 4.724609,-4.72461 4.7244094,4.7244094 0 0 0 -4.724609,-4.72461 z m 14.078125,0.18945 a 4.7244094,4.7244094 0 0 0 -4.724609,4.72461 4.7244094,4.7244094 0 0 0 4.724609,4.72461 4.7244094,4.7244094 0 0 0 4.724609,-4.72461 4.7244094,4.7244094 0 0 0 -4.724609,-4.72461 z M 85,124.66797 A 4.7244094,4.7244094 0 0 0 80.275391,129.39258 4.7244094,4.7244094 0 0 0 85,134.11719 4.7244094,4.7244094 0 0 0 89.724609,129.39258 4.7244094,4.7244094 0 0 0 85,124.66797 Z m -0.267578,14.46484 a 4.7244094,4.7244094 0 0 0 -4.72461,4.72461 4.7244094,4.7244094 0 0 0 4.72461,4.72461 4.7244094,4.7244094 0 0 0 4.724609,-4.72461 4.7244094,4.7244094 0 0 0 -4.724609,-4.72461 z m -0.08984,15 a 4.7244094,4.7244094 0 0 0 -4.724609,4.72461 4.7244094,4.7244094 0 0 0 4.724609,4.72461 4.7244094,4.7244094 0 0 0 4.72461,-4.72461 4.7244094,4.7244094 0 0 0 -4.72461,-4.72461 z"
       style="display:inline;opacity:1;fill:#ffffff;fill-opacity:1;stroke:none;stroke-width:2.18640852;stroke-linecap:round;stroke-linejoin:round;stroke-miterlimit:4;stroke-dasharray:none;stroke-dashoffset:0;stroke-opacity:1;paint-order:markers fill stroke" />
  </g>
  <g
     style="display:inline"
     id="layer8">
    <path
       id="path2396-76-5-0-4-5-55-47"
       transform="scale(0.26458333)"
       d="M 78.011719 44.517578 A 4.7244094 4.7244094 0 0 0 73.287109 49.242188 A 4.7244094 4.7244094 0 0 0 78.011719 53.966797 A 4.7244094 4.7244094 0 0 0 82.736328 49.242188 A 4.7244094 4.7244094 0 0 0 78.011719 44.517578 z M 92.029297 44.814453 A 4.7244094 4.7244094 0 0 0 87.304688 49.537109 A 4.7244094 4.7244094 0 0 0 92.029297 54.261719 A 4.7244094 4.7244094 0 0 0 96.753906 49.537109 A 4.7244094 4.7244094 0 0 0 92.029297 44.814453 z M 38.753906 46.396484 A 4.7244094 4.7244094 0 0 0 34.029297 51.121094 A 4.7244094 4.7244094 0 0 0 38.753906 55.845703 A 4.7244094 4.7244094 0 0 0 43.478516 51.121094 A 4.7244094 4.7244094 0 0 0 38.753906 46.396484 z M 27.470703 50.373047 A 4.7244094 4.7244094 0 0 0 22.746094 55.097656 A 4.7244094 4.7244094 0 0 0 27.470703 59.822266 A 4.7244094 4.7244094 0 0 0 32.195312 55.097656 A 4.7244094 4.7244094 0 0 0 27.470703 50.373047 z M 105.53125 52.892578 A 4.7244094 4.7244094 0 0 0 100.80664 57.617188 A 4.7244094 4.7244094 0 0 0 105.53125 62.341797 A 4.7244094 4.7244094 0 0 0 110.25586 57.617188 A 4.7244094 4.7244094 0 0 0 105.53125 52.892578 z M 66.253906 53.529297 A 4.7244094 4.7244094 0 0 0 61.529297 58.253906 A 4.7244094 4.7244094 0 0 0 66.253906 62.976562 A 4.7244094 4.7244094 0 0 0 70.978516 58.253906 A 4.7244094 4.7244094 0 0 0 66.253906 53.529297 z M 38.392578 61.107422 A 4.7244094 4.7244094 0 0 0 33.667969 65.832031 A 4.7244094 4.7244094 0 0 0 38.392578 70.556641 A 4.7244094 4.7244094 0 0 0 43.117188 65.832031 A 4.7244094 4.7244094 0 0 0 38.392578 61.107422 z M 20.320312 61.207031 A 4.7244094 4.7244094 0 0 0 15.597656 65.931641 A 4.7244094 4.7244094 0 0 0 20.320312 70.65625 A 4.7244094 4.7244094 0 0 0 25.044922 65.931641 A 4.7244094 4.7244094 0 0 0 20.320312 61.207031 z M 110.22266 65.726562 A 4.7244094 4.7244094 0 0 0 105.49805 70.451172 A 4.7244094 4.7244094 0 0 0 110.22266 75.175781 A 4.7244094 4.7244094 0 0 0 114.94727 70.451172 A 4.7244094 4.7244094 0 0 0 110.22266 65.726562 z M 62.144531 66.029297 A 4.7244094 4.7244094 0 0 0 57.421875 70.753906 A 4.7244094 4.7244094 0 0 0 62.144531 75.478516 A 4.7244094 4.7244094 0 0 0 66.869141 70.753906 A 4.7244094 4.7244094 0 0 0 62.144531 66.029297 z M 38.763672 73.587891 A 4.7244094 4.7244094 0 0 0 34.041016 78.3125 A 4.7244094 4.7244094 0 0 0 38.763672 83.037109 A 4.7244094 4.7244094 0 0 0 43.488281 78.3125 A 4.7244094 4.7244094 0 0 0 38.763672 73.587891 z M 110.50195 80.207031 A 4.7244094 4.7244094 0 0 0 105.7793 84.931641 A 4.7244094 4.7244094 0 0 0 110.50195 89.65625 A 4.7244094 4.7244094 0 0 0 115.22656 84.931641 A 4.7244094 4.7244094 0 0 0 110.50195 80.207031 z M 61.839844 81.052734 A 4.7244094 4.7244094 0 0 0 57.115234 85.777344 A 4.7244094 4.7244094 0 0 0 61.839844 90.501953 A 4.7244094 4.7244094 0 0 0 66.564453 85.777344 A 4.7244094 4.7244094 0 0 0 61.839844 81.052734 z M 38.943359 88.107422 A 4.7244094 4.7244094 0 0 0 34.21875 92.832031 A 4.7244094 4.7244094 0 0 0 38.943359 97.556641 A 4.7244094 4.7244094 0 0 0 43.667969 92.832031 A 4.7244094 4.7244094 0 0 0 38.943359 88.107422 z M 61.90625 95.689453 A 4.7244094 4.7244094 0 0 0 57.181641 100.41211 A 4.7244094 4.7244094 0 0 0 61.90625 105.13672 A 4.7244094 4.7244094 0 0 0 66.630859 100.41211 A 4.7244094 4.7244094 0 0 0 61.90625 95.689453 z M 110.49023 95.949219 A 4.7244094 4.7244094 0 0 0 105.76562 100.67383 A 4.7244094 4.7244094 0 0 0 110.49023 105.39844 A 4.7244094 4.7244094 0 0 0 115.21484 100.67383 A 4.7244094 4.7244094 0 0 0 110.49023 95.949219 z M 38.8125 102.89648 A 4.7244094 4.7244094 0 0 0 34.087891 107.62109 A 4.7244094 4.7244094 0 0 0 38.8125 112.34375 A 4.7244094 4.7244094 0 0 0 43.537109 107.62109 A 4.7244094 4.7244094 0 0 0 38.8125 102.89648 z M 61.9375 110.5293 A 4.7244094 4.7244094 0 0 0 57.214844 115.25391 A 4.7244094 4.7244094 0 0 0 61.9375 119.97852 A 4.7244094 4.7244094 0 0 0 66.662109 115.25391 A 4.7244094 4.7244094 0 0 0 61.9375 110.5293 z M 110.60156 111.375 A 4.7244094 4.7244094 0 0 0 105.87695 116.09961 A 4.7244094 4.7244094 0 0 0 110.60156 120.82422 A 4.7244094 4.7244094 0 0 0 115.32422 116.09961 A 4.7244094 4.7244094 0 0 0 110.60156 111.375 z M 38.796875 117.05859 A 4.7244094 4.7244094 0 0 0 34.072266 121.7832 A 4.7244094 4.7244094 0 0 0 38.796875 126.50586 A 4.7244094 4.7244094 0 0 0 43.521484 121.7832 A 4.7244094 4.7244094 0 0 0 38.796875 117.05859 z M 62.244141 125.55273 A 4.7244094 4.7244094 0 0 0 57.519531 130.27734 A 4.7244094 4.7244094 0 0 0 62.244141 135.00195 A 4.7244094 4.7244094 0 0 0 66.966797 130.27734 A 4.7244094 4.7244094 0 0 0 62.244141 125.55273 z M 110.32031 125.85547 A 4.7244094 4.7244094 0 0 0 105.59766 130.58008 A 4.7244094 4.7244094 0 0 0 110.32031 135.30469 A 4.7244094 4.7244094 0 0 0 115.04492 130.58008 A 4.7244094 4.7244094 0 0 0 110.32031 125.85547 z M 38.669922 131.86719 A 4.7244094 4.7244094 0 0 0 33.945312 136.5918 A 4.7244094 4.7244094 0 0 0 38.669922 141.31641 A 4.7244094 4.7244094 0 0 0 43.394531 136.5918 A 4.7244094 4.7244094 0 0 0 38.669922 131.86719 z M 66.351562 138.05469 A 4.7244094 4.7244094 0 0 0 61.626953 142.77734 A 4.7244094 4.7244094 0 0 0 66.351562 147.50195 A 4.7244094 4.7244094 0 0 0 71.076172 142.77734 A 4.7244094 4.7244094 0 0 0 66.351562 138.05469 z M 105.62891 138.68945 A 4.7244094 4.7244094 0 0 0 100.9043 143.41406 A 4.7244094 4.7244094 0 0 0 105.62891 148.13867 A 4.7244094 4.7244094 0 0 0 110.35352 143.41406 A 4.7244094 4.7244094 0 0 0 105.62891 138.68945 z M 92.126953 146.76953 A 4.7244094 4.7244094 0 0 0 87.402344 151.49414 A 4.7244094 4.7244094 0 0 0 92.126953 156.2168 A 4.7244094 4.7244094 0 0 0 96.851562 151.49414 A 4.7244094 4.7244094 0 0 0 92.126953 146.76953 z M 38.849609 147.01758 A 4.7244094 4.7244094 0 0 0 34.125 151.74219 A 4.7244094 4.7244094 0 0 0 38.849609 156.4668 A 4.7244094 4.7244094 0 0 0 43.572266 151.74219 A 4.7244094 4.7244094 0 0 0 38.849609 147.01758 z M 78.109375 147.06445 A 4.7244094 4.7244094 0 0 0 73.386719 151.78906 A 4.7244094 4.7244094 0 0 0 78.109375 156.51367 A 4.7244094 4.7244094 0 0 0 82.833984 151.78906 A 4.7244094 4.7244094 0 0 0 78.109375 147.06445 z "
       style="display:inline;opacity:1;fill:#ffffff;fill-opacity:1;stroke:none;stroke-width:2.18640852;stroke-linecap:round;stroke-linejoin:round;stroke-miterlimit:4;stroke-dasharray:none;stroke-dashoffset:0;stroke-opacity:1;paint-order:markers fill stroke" />
  </g>
</svg>
